<?xml version="1.0" standalone="no"?>
<!DOCTYPE svg PUBLIC "-//W3C//DTD SVG 20010904//EN"
 "http://www.w3.org/TR/2001/REC-SVG-20010904/DTD/svg10.dtd">
<svg version="1.0" xmlns="http://www.w3.org/2000/svg"
 width="700.000000pt" height="700.000000pt" viewBox="0 0 700.000000 700.000000"
 preserveAspectRatio="xMidYMid meet">
<metadata>
Created by potrace 1.14, written by Peter Selinger 2001-2017
</metadata>
<g transform="translate(0.000000,700.000000) scale(0.100000,-0.100000)"
fill="#000000" stroke="none">
<path d="M3278 6996 c-1 -2 -42 -6 -89 -10 -47 -4 -95 -8 -105 -10 -10 -2 -45
-7 -78 -11 -151 -18 -422 -81 -585 -135 -536 -178 -1005 -466 -1394 -854 -296
-296 -559 -676 -712 -1026 -25 -58 -50 -114 -55 -125 -45 -93 -150 -427 -176
-560 -2 -11 -10 -54 -19 -95 -29 -147 -36 -200 -52 -370 -15 -164 -8 -592 12
-711 2 -13 6 -46 9 -74 47 -408 239 -953 466 -1318 30 -48 60 -95 65 -105 25
-44 135 -194 213 -291 264 -325 558 -580 947 -818 132 -82 423 -218 585 -275
83 -29 268 -87 293 -92 12 -2 60 -13 107 -24 109 -27 200 -44 299 -58 25 -3
57 -8 71 -10 163 -25 682 -25 842 1 13 2 46 7 73 10 71 10 87 13 115 18 14 3
43 8 65 12 22 4 76 16 120 27 44 10 87 21 96 23 35 8 168 48 239 72 557 188
1090 542 1480 982 36 41 70 79 76 85 65 68 263 353 352 508 47 80 182 351 182
364 0 3 8 24 19 47 53 118 147 417 177 562 16 77 54 301 60 350 4 33 9 76 11
95 8 69 10 517 2 595 -15 162 -21 220 -24 225 -2 3 -6 30 -10 60 -9 75 -69
337 -99 435 -269 886 -854 1616 -1652 2063 -344 192 -800 351 -1144 397 -19 3
-46 7 -60 10 -13 2 -54 7 -90 11 -36 3 -76 8 -90 11 -27 5 -536 14 -542 9z
m552 -482 c71 -8 184 -25 187 -28 2 -1 -6 -11 -18 -21 -17 -16 -36 -19 -130
-19 -119 1 -139 7 -178 56 l-24 30 59 -6 c32 -4 79 -9 104 -12z m-1259 -304
c1 -96 6 -185 12 -196 27 -62 165 -57 205 7 7 10 14 40 17 66 13 122 20 138
94 216 25 26 54 47 66 47 45 0 65 -13 86 -57 20 -41 21 -54 16 -211 -6 -174
-13 -209 -57 -265 -12 -15 -41 -37 -63 -50 -39 -20 -57 -22 -268 -24 -124 -1
-245 3 -268 8 -24 5 -95 30 -158 55 -145 57 -201 64 -263 32 -63 -33 -83 -72
-88 -177 -5 -100 -21 -138 -60 -146 -114 -24 -139 -40 -165 -105 -11 -26 -14
-78 -13 -205 1 -159 3 -172 24 -207 33 -54 76 -71 182 -73 104 -2 137 9 172
56 31 41 45 85 54 164 7 72 22 106 51 120 36 18 318 11 378 -10 44 -15 163
-96 220 -149 41 -39 107 -60 187 -60 107 -1 114 4 257 216 35 52 76 101 90
110 17 9 57 16 109 17 115 3 122 -5 122 -145 0 -166 23 -196 152 -200 120 -4
147 -12 221 -68 67 -50 115 -183 86 -238 -35 -67 -83 -73 -184 -24 -116 55
-228 86 -328 90 -88 4 -166 -41 -372 -209 -53 -43 -201 -47 -254 -6 -20 15
-24 28 -26 85 -5 121 -28 133 -260 131 -139 -1 -154 -3 -205 -27 -32 -15 -82
-52 -122 -91 -100 -99 -128 -110 -278 -114 -273 -7 -283 -8 -334 -33 -42 -22
-207 -183 -341 -335 -72 -82 -97 -170 -98 -345 0 -113 3 -146 22 -204 62 -191
211 -390 343 -456 l59 -29 384 -1 c348 0 390 -2 445 -19 115 -36 210 -130 251
-249 17 -50 20 -86 21 -302 1 -184 4 -254 15 -280 27 -68 72 -92 176 -96 91
-3 121 -18 145 -72 13 -31 16 -89 17 -352 2 -304 2 -317 24 -367 13 -29 40
-66 60 -84 63 -54 94 -62 226 -63 106 0 125 3 164 23 26 14 129 107 256 235
l212 212 2 124 c7 401 11 463 29 499 24 50 79 78 147 77 38 -1 57 3 65 14 151
216 438 658 451 695 24 65 26 201 4 232 -14 21 -48 34 -115 47 -26 5 -81 22
-115 36 -11 4 -40 16 -65 25 -187 69 -369 230 -386 343 -18 110 -2 278 31 341
43 82 143 138 258 144 73 5 109 -10 137 -56 17 -27 20 -51 20 -160 0 -149 11
-184 71 -224 29 -19 51 -25 101 -26 59 -1 71 3 198 67 74 38 147 77 162 87 40
29 69 83 71 131 2 76 -11 104 -78 170 -72 70 -84 106 -59 168 30 71 42 75 295
78 208 3 230 1 281 -18 131 -49 254 -214 323 -433 34 -109 46 -190 49 -326 2
-105 4 -115 25 -132 25 -20 36 -22 121 -20 38 1 65 8 86 23 18 13 98 122 195
268 177 268 168 260 184 162 3 -19 7 -37 9 -41 2 -3 7 -35 11 -71 4 -36 8 -67
10 -70 2 -3 6 -39 10 -80 3 -41 8 -92 11 -112 11 -99 4 -480 -11 -559 -2 -9
-6 -40 -10 -70 -3 -30 -8 -61 -10 -69 -2 -8 -7 -35 -10 -60 -4 -25 -16 -83
-27 -130 -11 -47 -21 -92 -23 -100 -53 -227 -200 -572 -346 -810 -75 -124
-238 -346 -307 -419 -209 -221 -289 -295 -467 -430 -22 -17 -44 -34 -50 -39
-21 -16 -183 -120 -240 -154 -87 -52 -289 -152 -370 -183 -38 -15 -83 -33
-100 -40 -82 -36 -370 -116 -465 -130 -24 -4 -47 -8 -50 -10 -7 -4 -209 -30
-310 -40 -71 -7 -388 -7 -460 0 -78 7 -154 15 -180 20 -14 2 -45 7 -70 10 -25
3 -52 8 -60 10 -8 2 -31 7 -50 10 -256 42 -633 181 -900 332 -93 53 -284 176
-300 194 -3 3 -23 18 -45 34 -239 175 -526 481 -697 745 -102 158 -258 449
-258 483 0 7 -4 17 -9 22 -16 17 -98 255 -129 375 -33 122 -61 253 -67 310 -3
19 -6 44 -9 55 -4 20 -15 121 -22 205 -10 115 -3 466 12 560 2 19 7 55 10 80
17 149 87 435 149 605 297 821 941 1484 1745 1798 115 44 173 65 177 63 1 -1
3 -80 4 -176z"/>
<path d="M4733 2317 c-12 -7 -31 -24 -43 -40 -20 -25 -22 -40 -23 -180 -2
-172 6 -205 58 -237 61 -38 140 -18 171 42 13 25 17 64 18 173 1 77 0 151 -3
164 -2 12 -19 38 -38 57 -28 28 -41 34 -76 34 -23 -1 -52 -6 -64 -13z"/>
</g>
</svg>
